# xmcd CD database file
# Copyright (C) 1993-1998 Ti Kan
#
# Track frame offsets:
#	150
#	18985
#	31980
#	48342
#	75295
#	91755
#	106967
#	126587
#	142312
#	157060
#
# Disc length: 2410 seconds
#
# Revision: 0
# Processed by: cddbd v1.4b41PL1 Copyright (c) Steve Scherf et al.
# Submitted via: CDmax 1.5
#
DISCID=7d09680a
DTITLE=Mississippi Fred McDowell - Ain't Gonna Worry
DYEAR=1900
DGENRE=
TTITLE0=What's The Matter With Papa's Little Angel Child
TTITLE1=You Gotta Move
TTITLE2=Get Right Church
TTITLE3=Levee Camp Blues
TTITLE4=Keep Your Lamp Trimmed And Burning
TTITLE5=Big Fat Mama
TTITLE6=Unknown Blues
TTITLE7=Good Morning Little Schoolgirl
TTITLE8=You Ain't Gonna Worry My Life Anymore
TTITLE9=The Train I Ride
EXTD=
EXTT0=
EXTT1=
EXTT2=
EXTT3=
EXTT4=
EXTT5=
EXTT6=
EXTT7=
EXTT8=
EXTT9=
PLAYORDER=
